<svg width="50" height="50" viewBox="0 0 50 50" fill="none" xmlns="http://www.w3.org/2000/svg">
<path d="M48.7188 4.32129C48.3741 6.32115 49.0437 9.49029 48.0788 10.1115L18.1067 9.86304L14.9266 10.0264L14.4765 11.7284L10.7253 46.9243L10.2057 47.5081L5.14279 47.2885L4.66726 44.8461C3.25787 30.4965 1.67231 16.3851 0.315918 2.05251C1.61313 1.63212 3.12437 1.38873 4.44154 2.07464C5.81445 12.5573 6.43863 23.714 7.63468 34.5677L7.79158 34.8826L8.16182 33.8477L11.3901 2.54099L11.7514 1.79211L45.7913 1.92827C46.7665 2.68056 48.8028 0.209236 48.7188 4.32129Z" fill="#40BFFF"/>
<path d="M48.7656 17.8404C48.8502 20.196 47.9439 22.3558 47.2826 23.7311C46.0487 22.3763 44.5257 19.5816 43.009 21.6018C42.5348 22.4818 42.2018 24.0612 42.5479 25.3633C44.6482 29.249 48.3961 27.1317 49.1861 35.0137C49.5763 38.4058 49.2638 42.7442 48.1772 45.1474C46.4265 49.1863 43.8878 50.0407 41.4406 48.2995C40.3671 47.115 39.1669 46.3184 38.2372 44.1909C38.5943 41.7792 39.2233 39.7163 39.8984 37.9156C41.2631 38.7513 42.4523 41.4881 44.1383 40.9996C44.6957 40.9775 45.397 40.0244 45.6722 38.5504C45.8711 32.6785 42.839 34.9473 41.4441 33.2759C40.0251 32.4351 38.904 29.4413 38.6246 26.0849C38.35 22.5754 38.743 19.2105 39.8262 16.9537C42.3628 12.6629 46.3529 13.3403 48.7656 17.8404Z" fill="#40BFFF"/>
<path d="M37.1802 16.1348C37.2813 26.2175 37.2641 36.6883 37.1485 46.7165C35.8348 47.5539 34.3559 46.8289 32.9644 46.8221C31.8406 42.1909 31.1524 37.7623 29.8635 33.0954C29.7004 32.9235 29.6267 33.4613 29.5125 33.5668L29.4065 46.514C28.5291 47.702 27.289 46.6229 26.2712 47.0995L26.0475 45.3924C26.0888 35.8986 25.9381 25.5299 26.2485 16.2268C27.3853 15.6362 28.6681 15.6208 29.944 15.7451L30.3135 16.3731L33.1722 29.0837L33.5693 28.8948C33.4709 25.1487 33.8005 20.4052 33.7173 16.2438C34.7 15.2072 36.1314 15.774 37.1802 16.1348Z" fill="#40BFFF"/>
<path d="M19.7348 32.6512C19.6481 30.151 19.2318 27.7358 18.8085 25.5709C18.2353 27.5197 18.2559 30.2803 18.0082 32.5712C18.4768 33.635 19.2173 33.1108 19.7348 32.6512ZM22.7662 23.7702L25.0586 46.7166C24.0793 47.6068 22.8185 46.9362 21.7044 46.977C21.1545 45.0725 21.5007 41.4268 20.2344 41.0251C19.057 41.2021 17.5313 40.0635 16.733 42.3714L16.1838 47.074C15.1151 47.4127 13.8296 47.4332 12.8496 46.8C13.9239 36.4127 15.1619 26.2006 16.4515 15.9903C18.0419 15.2176 20.0934 15.5069 21.7415 15.9852L22.7662 23.7702Z" fill="#40BFFF"/>
<path d="M49.2879 12.5403C49.2625 12.5113 49.226 12.496 49.1778 12.496H49.1338V13.0083H49.2054C49.2501 13.0117 49.2838 12.9879 49.3079 12.9505C49.3327 12.9011 49.3451 12.8296 49.3451 12.7343C49.3457 12.6373 49.3251 12.5709 49.2879 12.5403ZM48.9521 13.9342V12.2033C48.9968 12.1999 49.0608 12.2033 49.1482 12.2033C49.235 12.2067 49.2838 12.2033 49.2914 12.2033C49.3492 12.2135 49.3953 12.2424 49.4311 12.2969C49.4937 12.3769 49.524 12.5181 49.524 12.7054C49.524 12.8534 49.5088 12.959 49.4758 13.0185C49.4435 13.0849 49.4036 13.1241 49.3554 13.1326C49.4001 13.1564 49.4325 13.1938 49.4552 13.2364C49.4965 13.3232 49.5199 13.456 49.5192 13.6313L49.5199 13.7827C49.5192 13.7998 49.5219 13.8168 49.5192 13.8372C49.5192 13.8508 49.5219 13.8712 49.5219 13.8849L49.5267 13.941L49.3533 13.9325C49.3478 13.8832 49.3437 13.7998 49.3423 13.6925C49.3416 13.5921 49.3375 13.524 49.3299 13.4832C49.3203 13.4202 49.3024 13.376 49.279 13.3521C49.2639 13.3419 49.2425 13.33 49.2136 13.3266H49.1737L49.1338 13.3232V13.9359L48.9521 13.9342ZM48.8626 12.1675C48.7615 12.416 48.7112 12.7173 48.7112 13.0713C48.7112 13.4253 48.7629 13.7351 48.8654 13.9904C48.9679 14.2423 49.0891 14.3665 49.2315 14.3614C49.3753 14.3682 49.4999 14.2355 49.6031 13.9836C49.7022 13.73 49.7538 13.4219 49.7538 13.0713C49.7538 12.7173 49.7022 12.416 49.6018 12.1692C49.4965 11.9054 49.3753 11.7761 49.2315 11.7761C49.0891 11.7761 48.9652 11.9054 48.8626 12.1675ZM49.6754 14.1912C49.5508 14.484 49.4036 14.6354 49.2315 14.632C49.0526 14.6269 48.9026 14.4789 48.7801 14.1793C48.6603 13.878 48.6011 13.5019 48.5984 13.0645C48.5984 12.6084 48.6651 12.2271 48.7973 11.9275C48.9211 11.6382 49.065 11.5003 49.2329 11.4952C49.4063 11.4952 49.5584 11.6484 49.6781 11.9531C49.8034 12.2662 49.8646 12.6322 49.8646 13.0645C49.8653 13.5104 49.8034 13.89 49.6754 14.1912Z" fill="#40BFFF"/>
</svg>
